<?xml version="1.0" standalone="no"?>
<!DOCTYPE svg PUBLIC "-//W3C//DTD SVG 20010904//EN"
 "http://www.w3.org/TR/2001/REC-SVG-20010904/DTD/svg10.dtd">
<svg version="1.0" xmlns="http://www.w3.org/2000/svg"
 width="800.000000pt" height="800.000000pt" viewBox="0 0 800.000000 800.000000"
 preserveAspectRatio="xMidYMid meet">
<metadata>
Created by potrace 1.14, written by Peter Selinger 2001-2017
</metadata>
<g transform="translate(0.000000,800.000000) scale(0.100000,-0.100000)"
fill="#000000" stroke="none">
<path d="M1380 6327 c-3 -2 -43 -7 -90 -11 -47 -3 -86 -6 -87 -6 -1 0 -4 -8
-6 -17 -4 -17 -5 -17 -6 0 -1 13 -6 17 -18 13 -16 -5 -160 -36 -167 -36 -2 0
-2 -12 1 -27 3 -26 3 -27 -6 -5 -6 12 -14 22 -18 22 -4 0 -45 -14 -91 -32 -53
-22 -80 -37 -77 -45 16 -39 15 -47 -1 -25 -9 12 -21 22 -26 22 -16 0 -148 -94
-148 -106 0 -6 7 -17 15 -24 8 -7 15 -17 15 -23 0 -6 -13 1 -28 16 l-28 27
-31 -38 c-17 -20 -46 -53 -64 -72 l-32 -34 34 -29 34 -29 -41 20 -41 21 -22
-42 c-12 -23 -33 -61 -46 -84 -22 -40 -22 -43 -5 -48 10 -3 24 -13 32 -22 12
-15 11 -15 -9 -5 -38 21 -52 14 -64 -30 -6 -24 -15 -48 -21 -55 -5 -7 -11 -29
-13 -50 -1 -21 -5 -45 -8 -53 -12 -35 -29 -152 -24 -170 3 -11 2 -20 -2 -20
-4 0 -9 -21 -10 -47 -5 -76 -2 -2002 3 -2058 2 -27 5 -58 5 -67 1 -9 11 -19
24 -21 l22 -4 -23 -2 c-18 -1 -21 -5 -17 -23 3 -13 11 -54 19 -93 10 -53 16
-70 29 -69 12 1 13 -2 5 -16 -9 -14 -5 -35 18 -96 27 -71 33 -79 55 -77 23 3
23 2 5 -12 -18 -13 -18 -15 5 -52 12 -21 36 -57 52 -81 28 -42 29 -43 53 -28
30 21 45 21 16 0 -12 -8 -22 -21 -22 -28 0 -7 30 -41 66 -76 l66 -62 24 27
c27 32 33 22 8 -14 -19 -27 -19 -27 77 -79 l76 -40 17 31 c9 18 14 23 10 12
-14 -44 -10 -49 78 -81 l87 -31 11 26 c8 21 9 22 6 4 -4 -24 2 -32 31 -37 99
-18 93 -15 93 -51 0 -19 3 -34 8 -34 4 1 25 1 47 0 l40 -2 -45 -18 c-25 -10
-44 -22 -44 -27 1 -5 14 -48 28 -97 28 -91 33 -95 82 -77 39 15 39 7 -1 -22
l-36 -25 57 -74 c31 -41 60 -78 65 -83 5 -5 23 2 44 18 39 30 45 24 15 -14
-11 -14 -20 -28 -20 -32 0 -5 39 -34 86 -65 69 -46 87 -54 94 -43 5 8 16 24
25 35 15 19 16 18 9 -15 -4 -19 -7 -40 -7 -45 0 -7 -265 -10 -806 -11 l-806 0
-3 -192 -2 -192 3990 0 3990 0 -2 192 -3 193 -655 0 -654 0 47 19 c50 21 51
22 31 83 -3 11 6 5 24 -15 28 -31 29 -32 50 -15 11 10 48 40 82 67 60 48 61
49 43 70 -48 55 -49 60 -6 33 24 -15 44 -27 46 -27 5 0 107 167 107 174 0 2
-16 14 -36 26 -42 27 -40 33 6 20 19 -5 38 -6 43 -1 12 12 37 124 39 176 1 47
2 48 69 59 32 6 36 9 33 34 l-4 27 12 -27 11 -26 86 30 c47 17 88 32 90 34 2
1 -2 18 -8 36 l-11 33 23 -29 23 -29 78 52 c77 52 79 57 48 94 -20 23 -6 22
25 -3 l25 -20 60 73 59 72 -33 29 -33 28 32 -16 c51 -25 41 -36 131 145 1 4
-11 12 -28 19 -38 16 -34 22 6 11 29 -7 29 -7 47 53 17 55 57 230 57 249 0 4
-8 7 -17 8 -16 0 -16 1 1 8 21 8 21 9 31 116 l7 74 -33 4 -34 4 34 1 34 2 -7
68 c-3 37 -6 79 -6 95 0 24 -4 27 -32 28 -22 1 -26 3 -13 6 35 9 36 18 14 107
l-22 88 -36 -6 -36 -6 33 15 33 14 -42 83 c-23 46 -43 84 -44 86 -2 2 -18 -4
-37 -13 l-33 -17 29 25 30 24 -55 75 -55 75 -30 -20 -29 -21 24 27 24 27 -64
61 c-35 34 -149 130 -254 213 -200 160 -302 246 -475 396 -40 35 -210 190
-275 251 -38 37 -86 81 -105 99 -19 18 -76 71 -125 119 -99 94 -350 330 -459
432 -38 35 -86 80 -106 99 -94 91 -153 140 -162 134 -6 -4 -8 -2 -5 4 4 5 -17
30 -45 54 -29 23 -59 49 -66 55 -17 17 -21 16 -46 -4 -12 -10 -15 -11 -8 -3
22 25 14 36 -64 84 -72 46 -76 47 -90 30 -14 -18 -15 -18 -5 2 9 18 2 24 -75
62 -46 23 -86 42 -89 42 -3 0 -5 -7 -5 -15 0 -8 -4 -15 -9 -15 -5 0 -7 8 -4
18 4 16 -10 23 -82 47 -73 23 -89 26 -97 14 -8 -11 -9 -11 -5 3 4 12 -3 18
-31 23 -20 4 -39 7 -42 8 -3 0 -28 6 -56 13 -49 11 -53 11 -63 -10 -11 -21
-11 -21 -5 2 5 19 1 22 -23 23 -15 0 -35 2 -43 3 -8 2 -38 6 -67 10 -48 5 -52
4 -56 -17 l-4 -22 -2 22 -1 22 -1578 -3 c-868 -1 -1583 -6 -1589 -9 -6 -4 -13
-2 -15 4 -2 5 -6 8 -8 6z m3325 -190 c253 -42 436 -109 630 -230 78 -49 210
-152 270 -212 17 -16 62 -59 100 -95 39 -36 133 -124 210 -197 77 -72 158
-148 180 -168 35 -33 161 -152 411 -388 40 -38 81 -76 92 -85 11 -9 44 -39 74
-67 30 -27 72 -65 94 -84 21 -19 57 -51 79 -70 22 -20 63 -55 90 -78 120 -100
211 -175 225 -186 167 -131 276 -221 323 -266 97 -93 193 -226 227 -316 l9
-24 -3629 0 c-3584 0 -3630 1 -3631 20 0 10 0 39 0 64 0 25 0 61 0 80 l1 35
1005 0 1005 0 0 44 c0 26 5 46 13 49 18 7 18 1548 0 1555 -8 2 -13 22 -13 51
l0 46 -970 0 c-965 0 -970 0 -964 20 17 56 100 187 156 246 79 84 158 136 273
181 87 34 110 41 184 53 19 3 37 8 40 10 3 2 47 6 96 10 50 4 91 8 92 9 7 6
3289 -1 3328 -7z m-2340 -646 c7 -1 10 -253 10 -751 l0 -750 -957 0 -958 0 -1
23 c-4 109 1 1237 5 1287 7 76 23 177 30 188 3 6 1828 9 1871 3z m5412 -2333
c-40 -308 -152 -533 -322 -647 -70 -47 -193 -100 -250 -107 -16 -2 -54 -9 -84
-14 -36 -7 -1037 -10 -2857 -10 l-2802 0 -4 -57 c-1 -32 -2 -73 0 -90 l3 -33
506 0 505 0 -6 -47 c-9 -71 -22 -121 -38 -146 -8 -12 -29 -45 -47 -73 -78
-123 -249 -212 -423 -221 -294 -15 -537 172 -575 445 -6 42 -6 42 26 42 17 0
31 1 31 3 1 1 3 41 6 90 l6 87 -44 1 c-70 1 -159 9 -213 19 -27 5 -65 12 -83
15 -60 10 -183 57 -258 99 -142 79 -263 226 -322 389 -27 74 -38 119 -58 234
-2 16 -6 33 -9 40 -2 6 -1 14 2 17 4 3 1651 6 3661 6 l3654 0 -5 -42z m-4277
-982 c0 -18 5 -24 18 -22 9 1 31 0 47 -4 30 -6 30 -6 -17 -21 l-46 -14 28 -93
c15 -51 30 -96 34 -99 3 -4 23 -1 43 5 20 6 38 10 40 8 2 -1 -13 -14 -32 -28
l-36 -25 57 -74 c31 -41 60 -78 65 -83 5 -5 23 2 44 18 39 30 45 24 15 -14
-11 -14 -20 -28 -20 -33 0 -13 174 -121 177 -110 2 6 12 21 22 32 18 21 18 21
17 -21 l-1 -43 -872 0 c-479 0 -869 3 -867 7 2 3 20 12 39 18 40 13 41 17 20
68 l-15 37 33 -37 32 -38 83 66 c83 66 83 67 65 88 -47 54 -48 60 -5 31 26
-17 46 -25 50 -19 4 6 29 45 57 89 47 75 48 79 30 91 -11 7 -29 20 -40 29
l-20 16 20 -5 c78 -17 70 -23 88 62 10 42 18 92 19 110 l2 32 413 0 413 0 0
-24z m1290 2 c-2 -120 -80 -262 -189 -347 -301 -235 -765 -110 -876 235 -13
44 -25 91 -25 107 l0 27 545 0 545 0 0 -22z m870 -3 c0 -14 3 -24 8 -24 4 1
25 1 47 0 l40 -2 -45 -18 c-25 -10 -44 -22 -44 -27 1 -5 14 -48 28 -96 28 -92
33 -96 82 -78 39 15 39 7 -1 -22 l-35 -25 60 -79 c33 -43 64 -80 69 -82 5 -2
23 9 40 23 35 30 40 23 11 -15 -11 -14 -20 -28 -20 -33 0 -13 174 -121 177
-110 2 6 12 21 22 32 18 21 18 21 17 -22 l-1 -42 -802 -1 c-442 0 -803 1 -803
3 0 1 21 9 48 16 50 15 53 21 37 82 -7 30 -7 30 21 -7 17 -24 31 -35 38 -30 6
5 44 35 84 67 72 57 73 58 54 79 -46 53 -48 60 -7 33 l40 -27 20 23 c21 22 95
140 95 150 0 3 -16 15 -36 27 -19 12 -34 24 -32 26 2 1 21 -1 43 -6 22 -5 41
-7 43 -5 2 2 6 18 8 37 3 18 9 47 14 63 5 17 10 49 12 73 l2 42 333 0 333 0 0
-25z m1290 6 c0 -11 -7 -51 -15 -89 -30 -146 -164 -288 -327 -347 -73 -27 -96
-30 -193 -30 -60 0 -119 3 -130 7 -11 3 -42 12 -70 19 -78 20 -192 101 -254
182 -42 53 -59 88 -77 150 -13 45 -24 91 -24 104 l0 23 545 0 c532 0 545 0
545 -19z m-4871 -621 c1 -13 0 -13 -9 0 -5 8 -9 24 -9 35 l0 20 9 -20 c5 -11
9 -27 9 -35z m2320 1 c2 -26 -13 -1 -16 27 -2 23 -1 24 7 7 5 -11 9 -26 9 -34z
m2160 -1 c1 -13 0 -13 -9 0 -5 8 -9 24 -9 35 l0 20 9 -20 c5 -11 9 -27 9 -35z
m-4712 -2 c-3 -7 -5 -2 -5 12 0 14 2 19 5 13 2 -7 2 -19 0 -25z m2328 12 c3
-5 1 -10 -4 -10 -6 0 -11 5 -11 10 0 6 2 10 4 10 3 0 8 -4 11 -10z m2160 0 c3
-5 1 -10 -4 -10 -6 0 -11 5 -11 10 0 6 2 10 4 10 3 0 8 -4 11 -10z"/>
<path d="M5535 5639 c-104 -14 -624 -21 -1435 -19 -432 0 -842 2 -913 3 l-127
2 0 -32 c0 -28 -4 -33 -24 -33 -13 0 -26 -6 -28 -12 -2 -7 -3 -386 -3 -843 l1
-830 44 -3 c25 -1 52 -5 60 -8 15 -6 165 -7 2340 -19 1322 -7 1235 -7 1276 -6
29 1 31 4 29 31 -2 18 5 40 15 53 17 21 17 23 -18 87 -267 492 -508 880 -715
1155 -50 66 -96 125 -101 131 -6 6 -27 30 -46 54 -88 109 -273 301 -288 299
-4 -1 -34 -5 -67 -10z m112 -194 c88 -95 211 -241 293 -351 124 -165 330 -474
330 -494 0 -5 4 -10 8 -12 11 -5 253 -420 336 -576 l28 -53 -1169 6 c-1174 6
-2305 13 -2333 14 -13 1 -15 92 -15 761 0 500 3 760 10 761 6 0 154 -1 330 -2
844 -4 1981 3 1991 14 1 1 30 2 64 2 l61 0 66 -70z"/>
</g>
</svg>
